<svg width="2971" height="1797" viewBox="0 0 2971 1797" fill="none" xmlns="http://www.w3.org/2000/svg">
<rect width="2971" height="1797" fill="#FEFAFA"/>
<g clip-path="url(#clip0_252_207)">
<path d="M2205 564C2454.07 564 2656 777.115 2656 1040C2656 1302.89 2454.07 1516 2205 1516C1955.92 1516 1754 1302.89 1754 1040C1754 777.115 1955.92 564 2205 564Z" fill="#D5D8DA"/>
<mask id="mask0_252_207" style="mask-type:luminance" maskUnits="userSpaceOnUse" x="1754" y="564" width="902" height="952">
<path d="M2205 1516C2454.08 1516 2656 1302.89 2656 1040C2656 777.112 2454.08 564 2205 564C1955.92 564 1754 777.112 1754 1040C1754 1302.89 1955.92 1516 2205 1516Z" fill="white"/>
</mask>
<g mask="url(#mask0_252_207)">
<path d="M1754 1516H2033.62L1934.4 1030.48L1754 1220.88V1516Z" fill="#C8C9CA"/>
</g>
<mask id="mask1_252_207" style="mask-type:luminance" maskUnits="userSpaceOnUse" x="1754" y="564" width="902" height="952">
<path d="M2205 1516C2454.08 1516 2656 1302.89 2656 1040C2656 777.112 2454.08 564 2205 564C1955.92 564 1754 777.112 1754 1040C1754 1302.89 1955.92 1516 2205 1516Z" fill="white"/>
</mask>
<g mask="url(#mask1_252_207)">
<path d="M2428.12 1516L2475.6 1040H1934.4L1981.87 1516H2428.12Z" fill="#EBEDEE"/>
</g>
<mask id="mask2_252_207" style="mask-type:luminance" maskUnits="userSpaceOnUse" x="1754" y="564" width="902" height="952">
<path d="M2205 1516C2454.08 1516 2656 1302.89 2656 1040C2656 777.112 2454.08 564 2205 564C1955.92 564 1754 777.112 1754 1040C1754 1302.89 1955.92 1516 2205 1516Z" fill="white"/>
</mask>
<g mask="url(#mask2_252_207)">
<path d="M2205 1516V1040H1934.4L1981.05 1516H2205Z" fill="#C3C9CD"/>
</g>
<mask id="mask3_252_207" style="mask-type:luminance" maskUnits="userSpaceOnUse" x="1754" y="564" width="902" height="952">
<path d="M2205 1516C2454.08 1516 2656 1302.89 2656 1040C2656 777.112 2454.08 564 2205 564C1955.92 564 1754 777.112 1754 1040C1754 1302.89 1955.92 1516 2205 1516Z" fill="white"/>
</mask>
<g mask="url(#mask3_252_207)">
<path d="M2475.44 1047.63L2473.09 1047.66C2455.36 1075.59 2342.13 1097.12 2205 1097.12C2068.35 1097.12 1955.42 1075.74 1937.07 1047.96H1934.5C1934 1047.94 1934.4 1077.56 1934.4 1078.08C1934.4 1109.63 2055.56 1135.2 2205 1135.2C2354.44 1135.2 2475.6 1109.63 2475.6 1078.08C2475.6 1077.45 2475.94 1047.25 2475.44 1047.63Z" fill="#95A5A6"/>
<path d="M2205.7 1135.2H2202.48C2054.19 1134.92 1934.4 1109.45 1934.4 1078.08C1934.4 1077.56 1934 1047.94 1934.5 1047.96C1934.59 1047.96 2069.92 1047.96 2205.18 1047.91C2205.4 1048 2205.9 1135.35 2205.7 1135.2Z" fill="#7F8C8D"/>
<path d="M2205 982.88C2354.44 982.88 2475.6 1008.46 2475.6 1040C2475.6 1071.55 2354.44 1097.12 2205 1097.12C2055.56 1097.12 1934.4 1071.55 1934.4 1040C1934.4 1008.46 2055.56 982.88 2205 982.88Z" fill="#EBEDEE"/>
<path d="M2205 1097.12C2274.26 1097.12 2337.4 1091.63 2385.22 1082.6L2299.71 992.362L2200.44 1097.1L2205 1097.12Z" fill="#F1C40E"/>
<path d="M2205 1097.12C2243.13 1097.12 2279.39 1095.45 2312.29 1092.46L2168.92 941.135L2033.42 1084.16C2080.11 1092.25 2139.84 1097.12 2205 1097.12Z" fill="white"/>
</g>
<mask id="mask4_252_207" style="mask-type:luminance" maskUnits="userSpaceOnUse" x="1754" y="564" width="902" height="952">
<path d="M2205 1516C2454.08 1516 2656 1302.89 2656 1040C2656 777.112 2454.08 564 2205 564C1955.92 564 1754 777.112 1754 1040C1754 1302.89 1955.92 1516 2205 1516Z" fill="white"/>
</mask>
<g mask="url(#mask4_252_207)">
<path d="M2057.32 1516L2042.64 1182.8C2042.64 1177.75 2040.74 1172.91 2037.36 1169.34C2033.97 1165.77 2029.38 1163.76 2024.6 1163.76C2019.82 1163.76 2015.23 1165.77 2011.84 1169.34C2008.46 1172.91 2006.56 1177.75 2006.56 1182.8L2021.24 1516H2057.32Z" fill="#95A5A6"/>
</g>
<mask id="mask5_252_207" style="mask-type:luminance" maskUnits="userSpaceOnUse" x="1754" y="564" width="902" height="952">
<path d="M2205 1516C2454.08 1516 2656 1302.89 2656 1040C2656 777.112 2454.08 564 2205 564C1955.92 564 1754 777.112 1754 1040C1754 1302.89 1955.92 1516 2205 1516Z" fill="white"/>
</mask>
<g mask="url(#mask5_252_207)">
<path d="M2379.74 1516L2394.42 1182.8C2394.42 1177.75 2392.52 1172.91 2389.14 1169.34C2385.75 1165.77 2381.16 1163.76 2376.38 1163.76C2371.6 1163.76 2367.01 1165.77 2363.62 1169.34C2360.24 1172.91 2358.34 1177.75 2358.34 1182.8L2343.66 1516H2379.74Z" fill="#BDC3C7"/>
</g>
<mask id="mask6_252_207" style="mask-type:luminance" maskUnits="userSpaceOnUse" x="1754" y="564" width="902" height="952">
<path d="M2205 1516C2454.08 1516 2656 1302.89 2656 1040C2656 777.112 2454.08 564 2205 564C1955.92 564 1754 777.112 1754 1040C1754 1302.89 1955.92 1516 2205 1516Z" fill="white"/>
</mask>
<g mask="url(#mask6_252_207)">
<path d="M2288.07 1516L2295.2 1192.32C2295.2 1187.27 2293.3 1182.43 2289.92 1178.86C2286.53 1175.29 2281.94 1173.28 2277.16 1173.28C2272.38 1173.28 2267.79 1175.29 2264.4 1178.86C2261.02 1182.43 2259.12 1187.27 2259.12 1192.32L2251.99 1516H2288.07Z" fill="#BDC3C7"/>
</g>
<mask id="mask7_252_207" style="mask-type:luminance" maskUnits="userSpaceOnUse" x="1754" y="564" width="902" height="952">
<path d="M2205 1516C2454.08 1516 2656 1302.89 2656 1040C2656 777.112 2454.08 564 2205 564C1955.92 564 1754 777.112 1754 1040C1754 1302.89 1955.92 1516 2205 1516Z" fill="white"/>
</mask>
<g mask="url(#mask7_252_207)">
<path d="M2148.99 1516L2141.86 1192.32C2141.86 1187.27 2139.96 1182.43 2136.58 1178.86C2133.19 1175.29 2128.6 1173.28 2123.82 1173.28C2119.04 1173.28 2114.45 1175.29 2111.06 1178.86C2107.68 1182.43 2105.78 1187.27 2105.78 1192.32L2112.91 1516H2148.99Z" fill="#95A5A6"/>
</g>
<path d="M2145.61 899.228C2173.95 899.228 2196.92 876.257 2196.92 847.921C2196.92 819.585 2173.09 803.564 2145.61 796.614C2116.04 789.132 2094.31 773.644 2094.31 745.307C2094.31 716.971 2117.28 694 2145.61 694C2088.94 694 2043 739.942 2043 796.614C2043 853.286 2088.94 899.228 2145.61 899.228Z" fill="#C8C9CA"/>
<path d="M2231.31 691C2202.97 691 2180 713.971 2180 742.307C2180 770.643 2203.84 786.664 2231.31 793.614C2260.88 801.096 2282.61 816.585 2282.61 844.921C2282.61 873.257 2259.64 896.228 2231.31 896.228C2287.98 896.228 2333.92 850.286 2333.92 793.614C2333.92 736.942 2287.98 691 2231.31 691Z" fill="#C8C9CA"/>
<path d="M2231.32 888.226C2226.9 888.226 2223.31 891.815 2223.31 896.243C2223.31 900.67 2226.89 904.26 2231.32 904.26C2292.33 904.26 2341.95 854.631 2341.95 793.63C2341.95 732.629 2292.32 683 2231.32 683C2198.61 683 2172 709.612 2172 742.324C2172 770.646 2192.91 792.18 2229.36 801.403C2259.39 809.001 2274.61 823.649 2274.61 844.938C2274.61 868.807 2255.19 888.226 2231.32 888.226ZM2233.29 785.857C2216.39 781.581 2188.03 770.238 2188.03 742.322C2188.03 731.102 2192.33 720.866 2199.35 713.167C2241.99 725.174 2277.9 756.199 2295.97 796.878C2297.83 801.082 2303.03 802.862 2307.09 800.689C2310.74 798.734 2312.3 794.154 2310.62 790.371C2292.42 749.37 2257.81 717.242 2216.13 701.793C2220.86 700.012 2225.98 699.032 2231.33 699.032C2283.49 699.032 2325.92 741.468 2325.92 793.629C2325.92 826.293 2309.28 855.144 2284.03 872.148C2288.26 863.993 2290.65 854.739 2290.65 844.936C2290.65 824.605 2280.7 797.851 2233.29 785.857Z" fill="black"/>
<path d="M2145.63 709.034C2150.06 709.034 2153.65 705.445 2153.65 701.017C2153.65 696.589 2150.06 693 2145.63 693C2084.63 693 2035 742.629 2035 803.63C2035 864.631 2084.63 914.26 2145.63 914.26C2178.34 914.26 2204.95 887.648 2204.95 854.936C2204.95 826.614 2184.05 805.08 2147.6 795.857C2117.57 788.259 2102.34 773.611 2102.34 752.322C2102.34 728.454 2121.76 709.034 2145.63 709.034ZM2143.66 811.403C2160.56 815.679 2188.92 827.022 2188.92 854.938C2188.92 866.158 2184.63 876.394 2177.6 884.093C2134.96 872.086 2099.05 841.062 2080.99 800.382C2079.19 796.336 2074.45 794.512 2070.41 796.308C2066.36 798.105 2064.54 802.841 2066.33 806.888C2084.54 847.889 2119.14 880.017 2160.83 895.466C2156.09 897.247 2150.97 898.227 2145.63 898.227C2093.47 898.227 2051.03 855.791 2051.03 803.63C2051.03 770.966 2067.67 742.115 2092.92 725.111C2088.69 733.266 2086.3 742.52 2086.3 752.323C2086.31 772.656 2096.26 799.409 2143.66 811.403Z" fill="black"/>
</g>
<defs>
<clipPath id="clip0_252_207">
<rect width="902" height="952" fill="white" transform="translate(1754 564)"/>
</clipPath>
</defs>
</svg>
